<?xml version="1.0" encoding="UTF-8"?>
<svg width="500px" height="89px" viewBox="0 0 500 89" version="1.1" xmlns="http://www.w3.org/2000/svg" xmlns:xlink="http://www.w3.org/1999/xlink">
    <!-- Generator: Sketch 54.1 (76490) - https://sketchapp.com -->
    <title>Test Area 2</title>
    <desc>Created with Sketch.</desc>
    <defs>
        <linearGradient x1="0%" y1="36.8065317%" x2="100%" y2="36.8065317%" id="linearGradient-1">
            <stop stop-color="#F8AC08" offset="0%"></stop>
            <stop stop-color="#DD2C71" offset="100%"></stop>
        </linearGradient>
        <linearGradient x1="50%" y1="27.1022221%" x2="58.1709411%" y2="39.7844726%" id="linearGradient-2">
            <stop stop-color="#F9C049" offset="0%"></stop>
            <stop stop-color="#F18C23" offset="100%"></stop>
        </linearGradient>
        <linearGradient x1="39.7604202%" y1="34.2601238%" x2="100%" y2="67.505659%" id="linearGradient-3">
            <stop stop-color="#E03A65" offset="0%"></stop>
            <stop stop-color="#F18C23" offset="100%"></stop>
        </linearGradient>
        <linearGradient x1="50%" y1="23.7220472%" x2="58.1709411%" y2="38.2764542%" id="linearGradient-4">
            <stop stop-color="#F9C049" offset="0%"></stop>
            <stop stop-color="#F18C23" offset="100%"></stop>
        </linearGradient>
    </defs>
    <g id="Wire-Frames" stroke="none" stroke-width="1" fill="none" fill-rule="evenodd">
        <g id="Test-Area-2" transform="translate(-51.000000, -132.000000)">
            <g id="HeaderPanelLarge" transform="translate(5.000000, -16.000000)">
                <rect id="Rectangle" fill="url(#linearGradient-1)" x="45.9255404" y="147.767657" width="500" height="89"></rect>
                <path d="M256.561186,314.863065 C217.792234,258.211556 146.882353,175.883183 89.754938,159.431393 C69.0376001,153.465128 47.593183,166.265497 24.5611859,168.787919" id="Path" stroke="url(#linearGradient-2)" stroke-width="0.5" fill-opacity="0.155567089" fill="#FFFFFF" transform="translate(140.561186, 236.363065) rotate(-34.000000) translate(-140.561186, -236.363065) "></path>
                <path d="M569.650553,226.844701 C547.148256,193.333335 517.002562,163.644397 487.056404,135.884612 C451.821549,103.222259 415.771785,74.4396241 376.75794,62.9891047 C350.584746,55.3073015 333.747966,63.7105803 304.650553,66.9582997" id="Path" stroke="url(#linearGradient-3)" stroke-width="0.5" fill-opacity="0.117378715" fill="#FFFFFF" transform="translate(437.150553, 143.344701) rotate(-214.000000) translate(-437.150553, -143.344701) "></path>
            </g>
            <g id="HeaderPanelSmall" transform="translate(0.000000, -124.000000)" fill="#FFFFFF" fill-opacity="0.155567089" stroke="url(#linearGradient-4)" stroke-width="0.5">
                <path d="M205.737812,255.187767 C175.033836,207.123632 118.875102,137.274794 73.6317127,123.316806 C57.2241337,118.254922 40.2407274,129.11498 22,131.255048" id="Path" transform="translate(113.868906, 188.586988) rotate(-34.000000) translate(-113.868906, -188.586988) "></path>
            </g>
        </g>
    </g>
</svg>