<?xml version="1.0" encoding="UTF-8"?>
<svg width="33px" height="32px" viewBox="0 0 33 32" version="1.1" xmlns="http://www.w3.org/2000/svg" xmlns:xlink="http://www.w3.org/1999/xlink">
    <!-- Generator: Sketch 54.1 (76490) - https://sketchapp.com -->
    <title>Icon Cookie</title>
    <desc>Created with Sketch.</desc>
    <g id="Symbols" stroke="none" stroke-width="1" fill="none" fill-rule="evenodd">
        <g id="Icon-Cookie---active">
            <g id="Icon-Cookie" transform="translate(-1.000000, -1.000000)" stroke="#F8AC08">
                <circle id="Oval" fill="#F8AC08" cx="11.1040057" cy="13" r="2"></circle>
                <path d="M32.0316955,19.1277459 L32.0316955,21.9595568 L26.3916435,29.7224224 L17.2658477,32.6875732 L8.14005197,29.7224224 L2.5,21.9595568 L2.5,12.3641273 L8.14005197,4.60126176 L17.2255035,1.64921962 L20.9579396,2.24037943 L32.0316955,19.1277459 Z" id="Shape" stroke-linejoin="bevel" transform="translate(17.265848, 17.161842) rotate(-9.000000) translate(-17.265848, -17.161842) "></path>
                <circle id="Oval" fill="#F8AC08" cx="13.6040057" cy="24.5" r="1.5"></circle>
                <circle id="Oval" fill="#F8AC08" cx="20.1040057" cy="18" r="1"></circle>
                <circle id="Oval" fill="#F8AC08" cx="25.1040057" cy="24" r="2"></circle>
                <path d="M17.3827215,1.82356333 C17.7121698,5.80775677 21.0051241,9.12531915 24.8304132,9.94267507" id="Path" transform="translate(21.106567, 5.883119) rotate(7.000000) translate(-21.106567, -5.883119) "></path>
                <path d="M24.4412798,9.45026569 C24.4412798,13.9089144 27.7985261,17.0473179 32.0443967,17.653756" id="Path" transform="translate(28.242838, 13.552011) rotate(-10.000000) translate(-28.242838, -13.552011) "></path>
            </g>
            <circle id="Oval" stroke="#FFFFFF" fill="#FFFFFF" cx="30.7" cy="8" r="7"></circle>
            <circle id="Oval" stroke="#FFFFFF" fill="#FFFFFF" cx="26.05" cy="0.6" r="8.1"></circle>
        </g>
    </g>
</svg>