<?xml version="1.0" encoding="UTF-8"?>
<svg width="43px" height="43px" viewBox="0 0 43 43" version="1.1" xmlns="http://www.w3.org/2000/svg" xmlns:xlink="http://www.w3.org/1999/xlink">
    <!-- Generator: Sketch 54.1 (76490) - https://sketchapp.com -->
    <title>Icon Favorite-active</title>
    <desc>Created with Sketch.</desc>
    <g id="Symbols" stroke="none" stroke-width="1" fill="none" fill-rule="evenodd">
        <g id="Icon-Favorite-active" transform="translate(-1.000000, 0.000000)">
            <path d="M7.95,7.30521746 L37.45,7.30521746" id="Line-10" stroke="#DD2C71" stroke-width="1.5" stroke-linecap="round"></path>
            <path d="M7.95,36.2052175 L37.45,36.2052175" id="Line-10" stroke="#DD2C71" stroke-width="1.5" stroke-linecap="round"></path>
            <g id="Keks-Ecken" transform="translate(0.178427, -0.666355)" stroke="#DD2C71" stroke-linecap="round" stroke-width="1.5">
                <path d="M43.4,5 C43.4,3.34314575 42.2807119,2 40.9,2 C39.5192881,2 38.4,3.34314575 38.4,5" id="Path" transform="translate(40.900000, 3.500000) rotate(45.000000) translate(-40.900000, -3.500000) "></path>
                <path d="M6,5 C6,3.34314575 4.88071187,2 3.5,2 C2.11928813,2 1,3.34314575 1,5" id="Path" transform="translate(3.500000, 3.500000) scale(-1, 1) rotate(45.000000) translate(-3.500000, -3.500000) "></path>
                <path d="M43.4,42.4 C43.4,40.7431458 42.2807119,39.4 40.9,39.4 C39.5192881,39.4 38.4,40.7431458 38.4,42.4" id="Path" transform="translate(40.900000, 40.900000) scale(1, -1) rotate(45.000000) translate(-40.900000, -40.900000) "></path>
                <path d="M6,42.4 C6,40.7431458 4.88071187,39.4 3.5,39.4 C2.11928813,39.4 1,40.7431458 1,42.4" id="Path" transform="translate(3.500000, 40.900000) scale(-1, -1) rotate(45.000000) translate(-3.500000, -40.900000) "></path>
            </g>
            <g id="Keks-links" transform="translate(2.000000, 21.655217) rotate(90.000000) translate(-2.000000, -21.655217) translate(-14.000000, 20.655217)" stroke="#DD2C71" stroke-linecap="round" stroke-width="1.5">
                <path d="M15.7888854,1.11104758 C15.4826146,0.642915544 15.1177274,-2.35034214e-13 13.8944427,-2.35034214e-13 C12.671158,-2.34990284e-13 12.4033875,0.555523791 12,1.11104758" id="Shape" transform="translate(13.894443, 0.555524) scale(1, -1) translate(-13.894443, -0.555524) "></path>
                <path d="M11.7888854,1.11104758 C11.4826146,0.642915544 11.1177274,-2.35034214e-13 9.8944427,-2.35034214e-13 C8.671158,-2.34990284e-13 8.40338754,0.555523791 8,1.11104758" id="Shape" transform="translate(9.894443, 0.555524) scale(1, -1) translate(-9.894443, -0.555524) "></path>
                <path d="M7.78888541,1.11104758 C7.48261462,0.642915544 7.11772741,-2.35034214e-13 5.8944427,-2.35034214e-13 C4.671158,-2.34990284e-13 4.40338754,0.555523791 4,1.11104758" id="Shape" transform="translate(5.894443, 0.555524) scale(1, -1) translate(-5.894443, -0.555524) "></path>
                <path d="M3.78888541,1.11104758 C3.48261462,0.642915544 3.11772741,-2.35034214e-13 1.8944427,-2.35034214e-13 C0.671158,-2.34990284e-13 0.40338754,0.555523791 -1.55431223e-14,1.11104758" id="Shape" transform="translate(1.894443, 0.555524) scale(1, -1) translate(-1.894443, -0.555524) "></path>
                <path d="M19.7888854,1.11104758 C19.4826146,0.642915544 19.1177274,-2.35034214e-13 17.8944427,-2.35034214e-13 C16.671158,-2.34990284e-13 16.4033875,0.555523791 16,1.11104758" id="Shape" transform="translate(17.894443, 0.555524) scale(1, -1) translate(-17.894443, -0.555524) "></path>
                <path d="M31.7888854,1.11104758 C31.4826146,0.642915544 31.1177274,-2.35034214e-13 29.8944427,-2.35034214e-13 C28.671158,-2.34990284e-13 28.4033875,0.555523791 28,1.11104758" id="Shape" transform="translate(29.894443, 0.555524) scale(1, -1) translate(-29.894443, -0.555524) "></path>
                <path d="M23.7888854,1.11104758 C23.4826146,0.642915544 23.1177274,-2.35034214e-13 21.8944427,-2.35034214e-13 C20.671158,-2.34990284e-13 20.4033875,0.555523791 20,1.11104758" id="Shape" transform="translate(21.894443, 0.555524) scale(1, -1) translate(-21.894443, -0.555524) "></path>
                <path d="M27.7888854,1.11104758 C27.4826146,0.642915544 27.1177274,-2.35034214e-13 25.8944427,-2.35034214e-13 C24.671158,-2.34990284e-13 24.4033875,0.555523791 24,1.11104758" id="Shape" transform="translate(25.894443, 0.555524) scale(1, -1) translate(-25.894443, -0.555524) "></path>
            </g>
            <g id="Keks-rechts" transform="translate(42.800000, 21.655217) scale(-1, 1) rotate(90.000000) translate(-42.800000, -21.655217) translate(26.800000, 20.655217)" stroke="#DD2C71" stroke-linecap="round" stroke-width="1.5">
                <path d="M15.7888854,1.11104758 C15.4826146,0.642915544 15.1177274,-2.35034214e-13 13.8944427,-2.35034214e-13 C12.671158,-2.34990284e-13 12.4033875,0.555523791 12,1.11104758" id="Shape" transform="translate(13.894443, 0.555524) scale(1, -1) translate(-13.894443, -0.555524) "></path>
                <path d="M11.7888854,1.11104758 C11.4826146,0.642915544 11.1177274,-2.35034214e-13 9.8944427,-2.35034214e-13 C8.671158,-2.34990284e-13 8.40338754,0.555523791 8,1.11104758" id="Shape" transform="translate(9.894443, 0.555524) scale(1, -1) translate(-9.894443, -0.555524) "></path>
                <path d="M7.78888541,1.11104758 C7.48261462,0.642915544 7.11772741,-2.35034214e-13 5.8944427,-2.35034214e-13 C4.671158,-2.34990284e-13 4.40338754,0.555523791 4,1.11104758" id="Shape" transform="translate(5.894443, 0.555524) scale(1, -1) translate(-5.894443, -0.555524) "></path>
                <path d="M3.78888541,1.11104758 C3.48261462,0.642915544 3.11772741,-2.35034214e-13 1.8944427,-2.35034214e-13 C0.671158,-2.34990284e-13 0.40338754,0.555523791 -1.55431223e-14,1.11104758" id="Shape" transform="translate(1.894443, 0.555524) scale(1, -1) translate(-1.894443, -0.555524) "></path>
                <path d="M19.7888854,1.11104758 C19.4826146,0.642915544 19.1177274,-2.35034214e-13 17.8944427,-2.35034214e-13 C16.671158,-2.34990284e-13 16.4033875,0.555523791 16,1.11104758" id="Shape" transform="translate(17.894443, 0.555524) scale(1, -1) translate(-17.894443, -0.555524) "></path>
                <path d="M31.7888854,1.11104758 C31.4826146,0.642915544 31.1177274,-2.35034214e-13 29.8944427,-2.35034214e-13 C28.671158,-2.34990284e-13 28.4033875,0.555523791 28,1.11104758" id="Shape" transform="translate(29.894443, 0.555524) scale(1, -1) translate(-29.894443, -0.555524) "></path>
                <path d="M23.7888854,1.11104758 C23.4826146,0.642915544 23.1177274,-2.35034214e-13 21.8944427,-2.35034214e-13 C20.671158,-2.34990284e-13 20.4033875,0.555523791 20,1.11104758" id="Shape" transform="translate(21.894443, 0.555524) scale(1, -1) translate(-21.894443, -0.555524) "></path>
                <path d="M27.7888854,1.11104758 C27.4826146,0.642915544 27.1177274,-2.35034214e-13 25.8944427,-2.35034214e-13 C24.671158,-2.34990284e-13 24.4033875,0.555523791 24,1.11104758" id="Shape" transform="translate(25.894443, 0.555524) scale(1, -1) translate(-25.894443, -0.555524) "></path>
            </g>
            <g id="Keks-unten" transform="translate(6.515643, 41.000000)" stroke="#DD2C71" stroke-linecap="round" stroke-width="1.5">
                <path d="M15.7888854,1.11104758 C15.4826146,0.642915544 15.1177274,-2.35034214e-13 13.8944427,-2.35034214e-13 C12.671158,-2.34990284e-13 12.4033875,0.555523791 12,1.11104758" id="Shape" transform="translate(13.894443, 0.555524) scale(1, -1) translate(-13.894443, -0.555524) "></path>
                <path d="M11.7888854,1.11104758 C11.4826146,0.642915544 11.1177274,-2.35034214e-13 9.8944427,-2.35034214e-13 C8.671158,-2.34990284e-13 8.40338754,0.555523791 8,1.11104758" id="Shape" transform="translate(9.894443, 0.555524) scale(1, -1) translate(-9.894443, -0.555524) "></path>
                <path d="M7.78888541,1.11104758 C7.48261462,0.642915544 7.11772741,-2.35034214e-13 5.8944427,-2.35034214e-13 C4.671158,-2.34990284e-13 4.40338754,0.555523791 4,1.11104758" id="Shape" transform="translate(5.894443, 0.555524) scale(1, -1) translate(-5.894443, -0.555524) "></path>
                <path d="M3.78888541,1.11104758 C3.48261462,0.642915544 3.11772741,-2.35034214e-13 1.8944427,-2.35034214e-13 C0.671158,-2.34990284e-13 0.40338754,0.555523791 -1.55431223e-14,1.11104758" id="Shape" transform="translate(1.894443, 0.555524) scale(1, -1) translate(-1.894443, -0.555524) "></path>
                <path d="M19.7888854,1.11104758 C19.4826146,0.642915544 19.1177274,-2.35034214e-13 17.8944427,-2.35034214e-13 C16.671158,-2.34990284e-13 16.4033875,0.555523791 16,1.11104758" id="Shape" transform="translate(17.894443, 0.555524) scale(1, -1) translate(-17.894443, -0.555524) "></path>
                <path d="M31.7888854,1.11104758 C31.4826146,0.642915544 31.1177274,-2.35034214e-13 29.8944427,-2.35034214e-13 C28.671158,-2.34990284e-13 28.4033875,0.555523791 28,1.11104758" id="Shape" transform="translate(29.894443, 0.555524) scale(1, -1) translate(-29.894443, -0.555524) "></path>
                <path d="M23.7888854,1.11104758 C23.4826146,0.642915544 23.1177274,-2.35034214e-13 21.8944427,-2.35034214e-13 C20.671158,-2.34990284e-13 20.4033875,0.555523791 20,1.11104758" id="Shape" transform="translate(21.894443, 0.555524) scale(1, -1) translate(-21.894443, -0.555524) "></path>
                <path d="M27.7888854,1.11104758 C27.4826146,0.642915544 27.1177274,-2.35034214e-13 25.8944427,-2.35034214e-13 C24.671158,-2.34990284e-13 24.4033875,0.555523791 24,1.11104758" id="Shape" transform="translate(25.894443, 0.555524) scale(1, -1) translate(-25.894443, -0.555524) "></path>
            </g>
            <g id="Keks-oben" transform="translate(6.515643, 1.000000)" stroke="#DD2C71" stroke-linecap="round" stroke-width="1.5">
                <path d="M15.7888854,1.11104758 C15.4826146,0.642915544 15.1177274,-5.55111512e-16 13.8944427,-5.55111512e-16 C12.671158,-5.11181676e-16 12.4033875,0.555523791 12,1.11104758" id="Shape"></path>
                <path d="M11.7888854,1.11104758 C11.4826146,0.642915544 11.1177274,-5.55111512e-16 9.8944427,-5.55111512e-16 C8.671158,-5.11181676e-16 8.40338754,0.555523791 8,1.11104758" id="Shape"></path>
                <path d="M7.78888541,1.11104758 C7.48261462,0.642915544 7.11772741,-5.55111512e-16 5.8944427,-5.55111512e-16 C4.671158,-5.11181676e-16 4.40338754,0.555523791 4,1.11104758" id="Shape"></path>
                <path d="M3.78888541,1.11104758 C3.48261462,0.642915544 3.11772741,-5.55111512e-16 1.8944427,-5.55111512e-16 C0.671158,-5.11181676e-16 0.40338754,0.555523791 -1.55431223e-14,1.11104758" id="Shape"></path>
                <path d="M19.7888854,1.11104758 C19.4826146,0.642915544 19.1177274,-5.55111512e-16 17.8944427,-5.55111512e-16 C16.671158,-5.11181676e-16 16.4033875,0.555523791 16,1.11104758" id="Shape"></path>
                <path d="M31.7888854,1.11104758 C31.4826146,0.642915544 31.1177274,-2.27928787e-13 29.8944427,-2.27928787e-13 C28.671158,-2.27884857e-13 28.4033875,0.555523791 28,1.11104758" id="Shape"></path>
                <path d="M23.7888854,1.11104758 C23.4826146,0.642915544 23.1177274,-5.55111512e-16 21.8944427,-5.55111512e-16 C20.671158,-5.11181676e-16 20.4033875,0.555523791 20,1.11104758" id="Shape"></path>
                <path d="M27.7888854,1.11104758 C27.4826146,0.642915544 27.1177274,-5.55111512e-16 25.8944427,-5.55111512e-16 C24.671158,-5.11181676e-16 24.4033875,0.555523791 24,1.11104758" id="Shape"></path>
            </g>
            <g id="Herz" transform="translate(6.650000, 7.705217)">
                <g id="Halbes-Herz" stroke="#DD2C71" stroke-linecap="round" stroke-width="1.5">
                    <path d="M16.2346762,8.5137177 C16.1976436,8.43267845 16.013753,7.8038369 15.9976734,7.72170087 C15.8194141,6.81113463 15.0368144,5.35891475 13.7915896,4.4648462 C12.5463647,3.57077765 10.7774969,2.99053985 8.84919148,3.00011677 C3.76332814,3.02537572 1.54784478,8.25499735 2.07619017,12.0780676" id="Path" transform="translate(9.117338, 7.539034) rotate(-21.000000) translate(-9.117338, -7.539034) "></path>
                    <path d="M4.16571081,14.3272128 C4.44479445,14.8079238 4.64151205,15.1331182 4.75586359,15.3027961 C5.33917155,16.168324 5.74397133,16.6385499 6.04929073,17.0091483 C6.78725657,17.9048955 7.567856,18.6577552 8.12365502,19.1806714 C9.11096449,20.1095687 9.99876109,20.8746182 10.7870448,21.47582 L16.138687,25.3895571" id="Line"></path>
                </g>
                <g id="Halbes-Herz" transform="translate(23.365711, 13.000000) scale(-1, 1) translate(-23.365711, -13.000000) translate(14.365711, 0.000000)" stroke="#DD2C71" stroke-linecap="round" stroke-width="1.5">
                    <path d="M16.2346762,8.5137177 C16.1976436,8.43267845 16.013753,7.8038369 15.9976734,7.72170087 C15.8194141,6.81113463 15.0368144,5.35891475 13.7915896,4.4648462 C12.5463647,3.57077765 10.7774969,2.99053985 8.84919148,3.00011677 C3.76332814,3.02537572 1.54784478,8.25499735 2.07619017,12.0780676" id="Path" transform="translate(9.117338, 7.539034) rotate(-21.000000) translate(-9.117338, -7.539034) "></path>
                    <path d="M4.16571081,14.3272128 C4.44479445,14.8079238 4.64151205,15.1331182 4.75586359,15.3027961 C5.33917155,16.168324 5.74397133,16.6385499 6.04929073,17.0091483 C6.78725657,17.9048955 7.567856,18.6577552 8.12365502,19.1806714 C9.11096449,20.1095687 9.99876109,20.8746182 10.7870448,21.47582 L16.138687,25.3895571" id="Line" fill="#DD2C71"></path>
                </g>
                <path d="M16.136196,6.29478254 C21.4796832,10.370492 25.0096547,13.7672074 26.7261103,16.4849288 C28.442566,19.2026503 28.9125945,22.1392682 28.136196,25.2947825 L4.13619598,25.2947825 C3.69652087,21.3485191 4.23049486,18.1818524 5.73811795,15.7947825 C7.24574103,13.4077127 10.711767,10.241046 16.136196,6.29478254 Z" id="Triangle" transform="translate(16.243098, 15.794783) rotate(180.000000) translate(-16.243098, -15.794783) "></path>
            </g>
        </g>
    </g>
</svg>