<?xml version="1.0" encoding="UTF-8"?>
<svg width="30px" height="54px" viewBox="0 0 30 54" version="1.1" xmlns="http://www.w3.org/2000/svg" xmlns:xlink="http://www.w3.org/1999/xlink">
    <!-- Generator: Sketch 54.1 (76490) - https://sketchapp.com -->
    <title>Icon Filter</title>
    <desc>Created with Sketch.</desc>
    <g id="Symbols" stroke="none" stroke-width="1" fill="none" fill-rule="evenodd">
        <g id="Icon-Filter">
            <g id="Icon-Pie" transform="translate(16.914037, 12.000000) rotate(-53.000000) translate(-16.914037, -12.000000) translate(2.414037, 3.000000)" stroke="#4B0420" stroke-linecap="round">
                <path d="M15,-1.13686838e-13 C8.00354011,-1.13994578e-13 4.87904225,4.29260338 4,7" id="Shape"></path>
                <path d="M25,-1.13686838e-13 C18.1218452,-1.13994578e-13 14.8641783,4.29260338 14,7" id="Shape" transform="translate(19.500000, 3.500000) scale(-1, 1) translate(-19.500000, -3.500000) "></path>
                <path d="M6.83,16.8 L22.375,16.71875" id="Line"></path>
                <path d="M25,11.15 L22.375,16.71875" id="Line-2"></path>
                <path d="M6.83,11.1 L4.25,16.8" id="Line-2" transform="translate(5.540000, 13.950000) scale(-1, 1) translate(-5.540000, -13.950000) "></path>
                <path d="M14.6,3.3 L14.6,5.7" id="Line-3"></path>
                <path d="M10.335527,3.3 L9,5.7" id="Line-3"></path>
                <path d="M19.335527,3.3 L18,5.7" id="Line-3" transform="translate(19.000000, 4.500000) scale(-1, 1) translate(-19.000000, -4.500000) "></path>
                <path d="M1.94014317,7.67755169 C1.64411777,7.71318714 1.52036207,7.68639421 1.39573512,7.87720183 C1.25824757,8.08769941 0.99197075,8.45567578 0.99197075,8.97712794 C0.99197075,9.97125558 1.95583134,11.0181378 3.07136376,11.0181378 C4.18689618,11.0181378 5.21015257,10.1120379 5.21015257,9.1179103" id="Shape" transform="translate(3.101062, 9.347845) rotate(-300.000000) translate(-3.101062, -9.347845) "></path>
                <path d="M24.6406375,7.65624291 C24.018039,7.73119113 23.835968,8.04382875 23.835968,9.03795639 C23.835968,10.032084 24.7998286,11.0789662 25.915361,11.0789662 C27.0308934,11.0789662 27.8535693,10.0225627 28.0204266,9.10387515" id="Shape" transform="translate(25.928197, 9.367605) scale(-1, 1) rotate(-300.000000) translate(-25.928197, -9.367605) "></path>
                <path d="M4.6,11.0400412 C5.6,10.7991444 6.35,9.92835675 6.9175214,8.81667227 M7.1,8.4 C7.35106332,9.44240954 7.9762953,10.246553 8.65687886,10.7909801 C9.17144615,11.2026038 9.6,11.2026038 10.2965271,11.3376814 C10.5641564,11.3895828 10.9568661,11.44712 11.2774358,11.3376814 C13.398212,11.0316657 14.4119651,9.73481353 14.6,8.81667227" id="Shape"></path>
                <path d="M14.6,11.0400412 C15.6,10.7991444 16.35,9.92835675 16.9175214,8.81667227 M17.1,8.4 C17.3510633,9.44240954 17.9762953,10.246553 18.6568789,10.7909801 C19.1714461,11.2026038 19.6,11.2026038 20.2965271,11.3376814 C20.5641564,11.3895828 20.9568661,11.44712 21.2774358,11.3376814 C23.398212,11.0316657 24.4119651,9.73481353 24.6,8.81667227" id="Shape" transform="translate(19.600000, 9.900000) scale(-1, 1) translate(-19.600000, -9.900000) "></path>
            </g>
            <path d="M16.753806,14 L26,27 L6,26.9016326 C6.82254232,21.7922977 7.83146083,18.4616936 9.02675554,16.9098205 C10.2220502,15.3579474 12.7977337,14.3880072 16.753806,14 Z" id="Triangle" stroke="#FFFFFF" fill="#FFFFFF" stroke-linejoin="round" transform="translate(16.000000, 20.500000) scale(1, -1) translate(-16.000000, -20.500000) "></path>
            <g id="funnel" transform="translate(0.000000, 13.000000)" stroke="#4B0420" stroke-linecap="round">
                <path d="M0.5,0.5 L29.5,0.5" id="Line-11"></path>
                <path d="M11.3,15.5 L18.5,15.5" id="Line-11"></path>
                <path d="M11.4,25.5 L18.5,29.5" id="Line-11"></path>
                <path d="M18.5,15.5 L18.5,29.5" id="Line"></path>
                <path d="M11.4,15.5 L11.4,25.5" id="Line"></path>
                <path d="M0.5,0.5 L11.3,15.5" id="Line-11"></path>
                <path d="M18.5,0.5 L29.5,15.5" id="Line-11" transform="translate(24.000000, 8.000000) scale(-1, 1) translate(-24.000000, -8.000000) "></path>
            </g>
            <g id="Drop" transform="translate(12.000000, 43.000000)" stroke="#4B0420" stroke-linecap="round">
                <path d="M0.0423713633,7.47933482 C0.36609835,9.33697779 1.54485736,10.4793348 3.20171161,10.4793348 C4.85856586,10.4793348 6.1982315,9.1159021 6.29962095,7.47933482 M3.21572865,-2.30926389e-14 C3.82557599,0.839690505 4.24972501,1.44661814 4.48817571,1.82078291 C5.23954283,2.99979016 5.71664869,3.84372979 5.95229741,4.56082175 C6.30203949,5.62510603 6.417814,6.59794372 6.29962095,7.47933482 M3.18038447,-2.30926389e-14 C2.57053713,0.839690505 2.1463881,1.44661814 1.90793741,1.82078291 C1.60498011,2.29616817 1.31649657,2.71294711 1.1047839,3.10181053 C0.791426083,3.67737077 0.604039105,4.17363241 0.443815704,4.56082175 C0.0433135973,5.52865882 -0.086126778,6.51216382 0.0554945777,7.51133676" id="Shape"></path>
                <path d="M1.42433389,6.66406156 C1.43768135,7.09428403 1.4638001,7.36604179 1.50269014,7.47933482 C1.60642837,7.78154115 1.68100216,7.96768444 1.76172544,8.14219169 C1.90505023,8.45203062 2.10969712,8.67849276 2.37566611,8.8215781" id="Line-12"></path>
            </g>
        </g>
    </g>
</svg>